<?xml version="1.0" encoding="utf-8"?>
<!-- Generator: Adobe Illustrator 22.0.0, SVG Export Plug-In . SVG Version: 6.00 Build 0)  -->
<svg version="1.1" id="Layer_1" xmlns="http://www.w3.org/2000/svg" xmlns:xlink="http://www.w3.org/1999/xlink" x="0px" y="0px"
	 viewBox="0 0 512 512" style="enable-background:new 0 0 512 512;" xml:space="preserve">
<path d="M455.6,397c-0.6-16.2-3.7-31.7-12.1-45.9c-8.4-14.3-19.7-25-35.7-30.4c-25.5-8.6-49.9-19.7-73.4-32.6
	c-3.2-1.8-6.5-3.3-9.9-4.7c-2.7-1.1-5.3-0.2-6.7,2.2c-2.7,4.5-5.4,9.1-7.9,13.7c0,0,0,0,0,0c-3.5,5.9-7,11.9-10.2,18
	c-1.4,2.7-0.5,5.1,2.1,6.8c0.7,0.5,1.5,0.9,2.3,1.2c16,7.4,32,14.9,48,22.3c7.6,3.5,15.3,7.1,23.1,10.1c5.9,2.2,10.5,5.6,13.9,10.6
	c5.2,7.6,7.3,16.2,8.4,25.2c1.8,14-0.2,27.8-3.2,41.5c-0.5,2.2-1.7,3.6-3.8,4.3c-14.1,4.7-28.1,9.9-42.3,14.1
	c-34.7,10.2-70.2,15.5-106.4,15.3c-20-0.1-39.8-1.9-59.4-5.5c-24-4.4-47.2-11.4-69.5-21.7c-3.2-1.5-4.5-3.6-4.5-7.1
	c0.2-11.9,0.1-23.9,0.2-35.8c0-6-0.1-12.1,0-18.1c0.1-5.2,2.5-9.4,7.1-11.7c15-7.7,30.1-15,45.2-22.6c13.9-6.9,28.1-13.4,40.4-23.1
	c3.5-2.8,4.1-5.5,1.3-8.9c-1.7-2.1-15.9-22.3-20.4-27.4c-3.1-3.6-5.8-3.7-9.8-0.9c-4.3,3-8.7,6.1-13.2,8.9
	c-17.9,11.1-37.2,19.6-56.1,28.9c-9.6,4.8-19.7,8.6-29.4,13.4c-13.9,6.9-21.6,18-22.3,33.8c-0.7,16.7,0.5,33.5-0.8,50.2
	c-1,12.8-0.2,25.7-0.2,38.5c0,4.9,2.1,8.3,6.7,10.3c4.5,1.9,8.9,4,13.3,6.1c29.4,14.1,60.2,24.1,92.5,29.4
	c27.2,4.5,54.7,6.2,82.2,5.9c5.2,0,10.5,0.2,15.7,0c9-0.3,18.1-0.4,27-1.4c13.9-1.6,27.7-3.8,41.5-6.1
	c38.3-6.4,75.3-17.5,110.8-33.1c4.2-1.9,6.7-4.7,7.9-9.2C453.8,440.5,456.5,419,455.6,397z"/>
<path d="M347.3,92.8c-8.2-27.8-22.5-51.4-45.1-70C271.1-2.8,227-2.4,197.9,19.1c-18.3,13.5-31.8,31.1-41.1,51.6
	c-13.7,30-18.8,61.7-15.7,94.6c1.6,17.1,5.2,33.8,11.4,49.8c9.6,24.9,24.1,46.3,46.5,61.3c26.6,17.8,55,21.2,84.4,7.4
	c19.7-9.3,35.4-23.5,46.6-42.2c17.3-28.7,24.9-60.1,25.4-88C355.4,129.3,352.6,110.9,347.3,92.8z M247.8,241.2
	c-35.5,0-64.2-41.8-64.2-93.4c0-51.6,28.8-93.4,64.2-93.4c35.5,0,64.2,41.8,64.2,93.4C312,199.4,283.2,241.2,247.8,241.2z"/>
</svg>
